<svg width="30" height="19" viewBox="0 0 30 19" fill="none" xmlns="http://www.w3.org/2000/svg">
<path fill-rule="evenodd" clip-rule="evenodd" d="M18.2809 4.54684L19.8371 7.65935C20.0762 8.14218 20.559 8.43749 21.0934 8.43749H26.7184V18.2812C26.7184 18.5437 26.5074 18.75 26.2496 18.75H18.2809V4.54684ZM22.9684 16.4062V13.5937C22.9684 13.3359 22.7574 13.125 22.4996 13.125H19.6871C19.4293 13.125 19.2184 13.3359 19.2184 13.5937V16.4062C19.2184 16.664 19.4293 16.875 19.6871 16.875H22.4996C22.7574 16.875 22.9684 16.664 22.9684 16.4062Z" fill="#FFB19D"/>
<path d="M29.9528 6.825L26.6715 0.262499C26.5918 0.103111 26.4278 0 26.2496 0H18.2809V2.45155L20.6762 7.24216C20.7559 7.40155 20.9153 7.5 21.0934 7.5H29.5309C29.695 7.5 29.845 7.4156 29.9293 7.27967C30.0137 7.13905 30.0231 6.97031 29.9528 6.825Z" fill="#FFB19D"/>
<path fill-rule="evenodd" clip-rule="evenodd" d="M3.74965 0C3.73058 0 3.71469 0.00474026 3.69828 0.0096333C3.68644 0.0131635 3.67434 0.0167732 3.66058 0.0187397C3.65276 0.0203069 3.64493 0.0213507 3.6371 0.0223944C3.6215 0.0244755 3.60589 0.0265567 3.59029 0.0327873C3.55747 0.0468636 3.52466 0.0656033 3.49653 0.0843716L3.4849 0.0912397C3.46668 0.101903 3.45113 0.111008 3.43559 0.126543C3.41394 0.14458 3.39786 0.168177 3.38089 0.193054C3.37582 0.200495 3.37067 0.208051 3.36527 0.215607C3.3619 0.220674 3.35792 0.225737 3.35377 0.231019L3.35377 0.231021C3.34639 0.24041 3.33847 0.250488 3.33248 0.262499L0.051231 6.825C-0.0237848 6.97031 -0.0144007 7.13905 0.0699707 7.27967C0.154342 7.4156 0.304346 7.5 0.468397 7.5H3.2809V18.2812C3.2809 18.5391 3.49184 18.75 3.74965 18.75H17.3434V0H3.74965ZM10.2887 12.0515C10.1059 12.2344 9.81058 12.2344 9.62779 12.0515L8.43715 10.8609V15.9375C8.43715 16.1953 8.2262 16.4062 7.9684 16.4062C7.71059 16.4062 7.49965 16.1953 7.49965 15.9375V10.8609L6.30903 12.0515C6.21997 12.1406 6.09809 12.1875 5.9809 12.1875C5.85902 12.1875 5.74183 12.1406 5.64808 12.0515C5.46529 11.8687 5.46529 11.5734 5.64808 11.3906L7.6356 9.39843C7.68247 9.35623 7.73402 9.32342 7.79027 9.29998C7.90279 9.25312 8.03403 9.25312 8.14652 9.29998C8.20746 9.32342 8.25902 9.35623 8.30122 9.39843L10.2887 11.3906C10.4715 11.5734 10.4715 11.8687 10.2887 12.0515ZM7.9684 7.03125H13.5934C14.6293 7.03125 15.4684 6.19217 15.4684 5.15625C15.4684 4.12499 14.6293 3.28125 13.5934 3.28125H7.9684C6.93248 3.28125 6.0934 4.12499 6.0934 5.15625C6.0934 6.19217 6.93248 7.03125 7.9684 7.03125Z" fill="#FFB19D"/>
</svg>
