<svg width="24" height="25" viewBox="0 0 24 25" fill="none" xmlns="http://www.w3.org/2000/svg">
<path fill-rule="evenodd" clip-rule="evenodd" d="M14.0834 1C15.3334 -0.25 17.3334 -0.25 18.5834 1L15 4.5C14.3334 5.16667 14.3334 6.25 15 6.91667L17 9C17.6667 9.66667 18.75 9.66667 19.4167 9L23 5.41667C24.25 6.66667 24.25 8.66667 23 9.91667L19.3334 13.5833C18.0834 14.8333 16.1667 14.8333 14.9167 13.75L5.50004 23.1667C4.41671 24.25 2.66671 24.25 1.58337 23.1667L0.833374 22.3333C-0.249959 21.3333 -0.249959 19.5 0.833374 18.5L10.25 9.08333C9.08337 7.83333 9.16671 5.91667 10.3334 4.66667L14.0834 1ZM2.25004 18.8333C3.08337 18 4.33337 18 5.16671 18.8333C6.00004 19.5833 6.00004 20.9167 5.16671 21.6667C4.33337 22.5 3.08337 22.5 2.25004 21.6667C1.50004 20.9167 1.50004 19.5833 2.25004 18.8333Z" fill="#FFB19D"/>
<path d="M17.6666 15.1667L21.5 19C21.6666 19.1667 21.9166 19.1667 22 19L22.4166 18.6667C22.5833 18.5 22.5833 18.25 22.4166 18.1667L19 14.75C19.3333 14.5 19.5833 14.3333 19.8333 14L23.25 17.4167C24.1666 18.3333 24.1666 19.9167 23.25 20.8333L20.5833 23.5C19.5833 24.4167 18.0833 24.4167 17.1666 23.5L11.6666 18L15 14.6667C15.8333 15.1667 16.75 15.3333 17.6666 15.1667Z" fill="#FFB19D"/>
<path d="M8.25 10L4.58333 6.33333C4.16667 6.66667 3.5 6.66667 3.25 6.25L0 1.41667L1.25 0.166668L6.08333 3.41667C6.5 3.66667 6.5 4.33333 6.16667 4.75L8.75 7.33333C8.83333 7.91667 9 8.5 9.33333 9L8.25 10Z" fill="#FFB19D"/>
</svg>
