<svg width="26" height="30" viewBox="0 0 26 30" fill="none" xmlns="http://www.w3.org/2000/svg">
<path fill-rule="evenodd" clip-rule="evenodd" d="M25.6664 29.7143H0.33313V20.5738H25.6664V29.7143ZM14.4823 25.1439C14.4823 24.3263 13.8171 23.6615 12.9996 23.6615C12.1821 23.6615 11.5168 24.3263 11.5168 25.1439C11.5168 25.9614 12.1821 26.6266 12.9996 26.6266C13.8171 26.6266 14.4823 25.9614 14.4823 25.1439Z" fill="#FFB19D"/>
<circle cx="12.9996" cy="25.1439" r="0.337629" fill="white"/>
<path fill-rule="evenodd" clip-rule="evenodd" d="M14.014 25.1442C14.014 25.7036 13.5593 26.159 12.9996 26.159C12.4402 26.159 11.9849 25.7036 11.9849 25.1442C11.9849 24.5852 12.4402 24.1302 12.9996 24.1302C13.559 24.1302 14.014 24.5849 14.014 25.1442ZM13.8052 25.1439C13.8052 24.6993 13.4438 24.3382 12.9996 24.3382C12.555 24.3382 12.1936 24.6993 12.1936 25.1439C12.1936 25.5881 12.555 25.9491 12.9996 25.9491C13.4438 25.9491 13.8052 25.5881 13.8052 25.1439Z" fill="white"/>
<path fill-rule="evenodd" clip-rule="evenodd" d="M0.33313 9.14123V0H25.6664V9.14123H0.33313ZM11.5168 4.57043C11.5168 5.38794 12.1821 6.05317 12.9996 6.05317C13.8171 6.05317 14.4823 5.38794 14.4823 4.57043C14.4823 3.75291 13.8171 3.08769 12.9996 3.08769C12.1821 3.08769 11.5168 3.75291 11.5168 4.57043Z" fill="#FFB19D"/>
<path fill-rule="evenodd" clip-rule="evenodd" d="M11.9849 4.57005C11.9849 4.01105 12.4402 3.55568 12.9996 3.55568C13.5593 3.55568 14.014 4.01105 14.014 4.57005C14.014 5.12905 13.5593 5.58442 12.9996 5.58442C12.4402 5.58442 11.9849 5.12905 11.9849 4.57005ZM12.1936 4.57042C12.1936 5.01465 12.555 5.37642 12.9996 5.37642C13.4438 5.37642 13.8052 5.01502 13.8052 4.57079C13.8052 4.12694 13.4438 3.76517 12.9996 3.76517C12.555 3.76517 12.1936 4.12657 12.1936 4.57042Z" fill="white"/>
<circle cx="12.9996" cy="4.5708" r="0.337257" fill="white"/>
<circle cx="12.9996" cy="14.8571" r="0.337629" fill="white"/>
<path fill-rule="evenodd" clip-rule="evenodd" d="M14.014 14.8571C14.014 15.4165 13.5593 15.8715 12.9996 15.8715C12.4402 15.8715 11.9849 15.4169 11.9849 14.8571C11.9849 14.2981 12.4402 13.8428 12.9996 13.8428C13.559 13.8428 14.014 14.2978 14.014 14.8571ZM13.8052 14.8571C13.8052 14.4129 13.4438 14.0511 12.9996 14.0511C12.555 14.0511 12.1936 14.4129 12.1936 14.8571C12.1936 15.3014 12.555 15.6628 12.9996 15.6628C13.4438 15.6628 13.8052 15.3014 13.8052 14.8571Z" fill="white"/>
<path fill-rule="evenodd" clip-rule="evenodd" d="M25.6664 19.4276H0.33313V10.2867H25.6664V19.4276ZM14.4823 14.8571C14.4823 14.0396 13.8171 13.3744 12.9996 13.3744C12.1821 13.3744 11.5168 14.0396 11.5168 14.8571C11.5168 15.6747 12.1821 16.3399 12.9996 16.3399C13.8171 16.3399 14.4823 15.6747 14.4823 14.8571Z" fill="#FFB19D"/>
</svg>
