<svg width="16" height="16" viewBox="0 0 16 16" fill="none" xmlns="http://www.w3.org/2000/svg">
<path fill-rule="evenodd" clip-rule="evenodd" d="M12.1365 11.1652L15.8669 14.8955L14.7724 15.9902L11.0153 12.2328C9.8426 13.1203 8.42144 13.6013 6.92544 13.6013C5.11048 13.6013 3.4039 12.8945 2.12054 11.6108C-0.529266 8.9613 -0.529524 4.65007 2.12028 2.00026C3.4039 0.71665 5.11048 0.0098114 6.92544 0.0098114C8.74067 0.0098114 10.4473 0.71665 11.7309 2.00026C14.2369 4.50607 14.3711 8.49781 12.1365 11.1652ZM3.21499 3.09497C1.16906 5.14117 1.16931 8.46994 3.21525 10.5161C4.20622 11.5071 5.5239 12.0529 6.92544 12.0529C8.32725 12.0529 9.64493 11.5071 10.6362 10.5159C12.6821 8.46968 12.6821 5.14091 10.6362 3.09523C9.64493 2.104 8.32725 1.5582 6.92544 1.5582C5.5239 1.5582 4.20622 2.104 3.21499 3.09497Z" fill="#525464"/>
</svg>
